<svg width="941" height="858" viewBox="0 0 941 858" fill="none" xmlns="http://www.w3.org/2000/svg">
<path fill-rule="evenodd" clip-rule="evenodd" d="M643.58 440.172V641.161C643.58 710.625 699.893 766.949 769.343 766.949C838.793 766.949 895.106 710.625 895.106 641.161V440.172C895.106 370.709 838.793 314.385 769.343 314.385C699.893 314.385 643.58 370.709 643.58 440.172ZM623.882 731.012C654.003 779.684 707.867 812.104 769.309 812.104H769.343C863.742 812.104 940.252 735.579 940.252 641.161V440.172C940.252 345.755 863.775 269.23 769.411 269.23H769.343C688.93 269.23 621.497 324.761 603.282 399.578C620.534 423.824 630.682 453.478 630.682 485.497V686.486C630.682 701.998 628.3 716.956 623.882 731.012Z" fill="white"/>
<path fill-rule="evenodd" clip-rule="evenodd" d="M721.651 291.638H722.33C774.061 291.638 816.016 333.601 816.016 385.342V513.336C816.016 565.078 774.061 607.041 722.33 607.041H721.651C669.921 607.041 627.966 565.078 627.966 513.336V385.342C627.966 333.601 669.921 291.638 721.651 291.638Z" fill="white"/>
<path fill-rule="evenodd" clip-rule="evenodd" d="M482.447 359.539C413.032 359.539 356.752 415.864 356.752 485.327V686.316C356.752 755.779 413.066 812.104 482.515 812.104C551.965 812.104 608.278 755.779 608.278 686.316V485.327C608.278 415.864 551.999 359.539 482.583 359.539H482.447ZM311.607 485.327C311.607 390.91 388.083 314.385 482.447 314.385H482.515C576.914 314.385 653.424 390.91 653.424 485.327V686.35C653.424 780.767 576.914 857.292 482.515 857.292H482.481C388.083 857.292 311.573 780.767 311.573 686.35V485.327H311.607Z" fill="white"/>
<path fill-rule="evenodd" clip-rule="evenodd" d="M434.824 337.132H435.503C487.234 337.132 529.188 379.095 529.188 430.836V558.831C529.188 610.572 487.234 652.535 435.503 652.535H434.824C383.093 652.535 341.138 610.572 341.138 558.831V430.836C341.138 379.095 383.093 337.132 434.824 337.132Z" fill="white"/>
<path fill-rule="evenodd" clip-rule="evenodd" d="M253.155 506.478C250.677 506.478 248.267 506.003 245.993 505.053C243.719 504.102 241.648 502.744 239.917 500.978C238.186 499.247 236.794 497.176 235.844 494.901C234.893 492.627 234.418 490.182 234.418 487.738C234.418 368.842 137.711 272.116 18.839 272.116C13.8831 272.116 9.097 270.147 5.56681 266.616C2.07057 263.085 0.0678711 258.298 0.0678711 253.341C0.0678711 248.384 2.03663 243.597 5.56681 240.066C9.097 236.569 13.8492 234.6 18.839 234.6C137.711 234.6 234.418 137.84 234.418 18.9446C234.418 13.9878 236.387 9.20072 239.917 5.66983C243.447 2.13895 248.199 0.1698 253.189 0.1698C258.145 0.1698 262.931 2.13895 266.461 5.66983C269.991 9.20072 271.96 13.9538 271.96 18.9446C271.926 137.84 368.633 234.6 487.505 234.6C492.495 234.6 497.247 236.569 500.777 240.1C504.307 243.631 506.276 248.384 506.276 253.375C506.276 258.366 504.307 263.119 500.777 266.65C497.281 270.181 492.495 272.15 487.505 272.15C368.633 272.15 271.926 368.876 271.926 487.772C271.926 490.216 271.451 492.661 270.501 494.935C269.55 497.21 268.192 499.281 266.427 501.012C264.696 502.744 262.625 504.136 260.351 505.086C258.077 506.003 255.633 506.478 253.155 506.478ZM114.426 253.341C145.586 266.141 173.896 284.983 197.69 308.817C221.519 332.65 240.358 360.931 253.155 392.098C265.952 360.931 284.791 332.616 308.62 308.817C332.449 284.983 360.758 266.141 391.885 253.341C360.724 240.542 332.415 221.699 308.62 197.865C284.791 174.032 265.952 145.751 253.155 114.584C240.358 145.751 221.519 174.066 197.69 197.865C173.862 221.665 145.586 240.542 114.426 253.341Z" fill="white"/>
</svg>
